<svg id="visual" viewBox="0 0 600 100" width="600" height="100" xmlns="http://www.w3.org/2000/svg" xmlns:xlink="http://www.w3.org/1999/xlink" version="1.1"><rect x="0" y="0" width="600" height="100" fill="#ffffff"></rect><path d="M0 89L4.5 79.2C9 69.3 18 49.7 27.2 50C36.3 50.3 45.7 70.7 54.8 79.3C64 88 73 85 82 77.7C91 70.3 100 58.7 109 51.3C118 44 127 41 136.2 40.3C145.3 39.7 154.7 41.3 163.8 47.8C173 54.3 182 65.7 191 61.2C200 56.7 209 36.3 218 31C227 25.7 236 35.3 245.2 48.2C254.3 61 263.7 77 272.8 71.8C282 66.7 291 40.3 300 36.8C309 33.3 318 52.7 327.2 52C336.3 51.3 345.7 30.7 354.8 25.3C364 20 373 30 382 34.2C391 38.3 400 36.7 409 37.3C418 38 427 41 436.2 45C445.3 49 454.7 54 463.8 60.2C473 66.3 482 73.7 491 68.7C500 63.7 509 46.3 518 48.3C527 50.3 536 71.7 545.2 77.5C554.3 83.3 563.7 73.7 572.8 63.7C582 53.7 591 43.3 595.5 38.2L600 33L600 0L595.5 0C591 0 582 0 572.8 0C563.7 0 554.3 0 545.2 0C536 0 527 0 518 0C509 0 500 0 491 0C482 0 473 0 463.8 0C454.7 0 445.3 0 436.2 0C427 0 418 0 409 0C400 0 391 0 382 0C373 0 364 0 354.8 0C345.7 0 336.3 0 327.2 0C318 0 309 0 300 0C291 0 282 0 272.8 0C263.7 0 254.3 0 245.2 0C236 0 227 0 218 0C209 0 200 0 191 0C182 0 173 0 163.8 0C154.7 0 145.3 0 136.2 0C127 0 118 0 109 0C100 0 91 0 82 0C73 0 64 0 54.8 0C45.7 0 36.3 0 27.2 0C18 0 9 0 4.5 0L0 0Z" fill="#001122" stroke-linecap="round" stroke-linejoin="miter"></path></svg>